<?xml version="1.0" encoding="UTF-8"?><svg xmlns="http://www.w3.org/2000/svg" xmlns:xlink="http://www.w3.org/1999/xlink" viewBox="0 0 257.86 55.84"><defs><style>.f{fill:url(#d);}.g{fill:url(#e);}.h{fill:#231f20;}</style><linearGradient id="d" x1="210.39" y1="26.2" x2="216.71" y2="26.2" gradientTransform="matrix(1, 0, 0, 1, 0, 0)" gradientUnits="userSpaceOnUse"><stop offset="0" stop-color="#fff"/><stop offset="0" stop-color="#000"/></linearGradient><linearGradient id="e" x1="210.53" y1="18.94" x2="216.57" y2="18.94" xlink:href="#d"/></defs><g id="a"/><g id="b"><g id="c"><g><path class="h" d="M85.23,14.15v.21c0,.65-.53,1.18-1.18,1.18h-2.37c-.65,0-1.18,.53-1.18,1.18v28.64c0,.65-.53,1.18-1.18,1.18h-.52c-.65,0-1.18-.53-1.18-1.18v-13.26c0-.65-.53-1.18-1.18-1.18h-12.57c-.2,0-.39,.06-.56,.15-.34,.18-.66,.31-.97,.39-.39,.1-.83,.17-1.31,.2l-.04,.11c1.43,2.52,3.12,4.83,5.1,6.92,1.7,1.8,3.57,3.5,5.61,5.1,.54,.42,.62,1.2,.17,1.71l-.32,.36c-.41,.47-1.12,.55-1.61,.17-1.63-1.26-3.13-2.61-4.53-4.06-1.64-1.71-3.13-3.44-4.46-5.19-1.33-1.75-2.51-3.47-3.53-5.17-.79-1.29-1.48-2.51-2.1-3.65-.31-.57-.09-1.28,.49-1.59l.28-.15c.58-.31,1.28-.08,1.6,.49,.1,.18,.2,.34,.29,.49,.26,.41,.53,.72,.81,.96,.28,.23,.57,.39,.88,.48,.31,.09,.65,.14,1.02,.14,1.13,0,1.95-.41,2.49-1.24,.53-.83,.8-1.91,.8-3.26,0-.85-.08-1.7-.25-2.53-.17-.83-.37-1.62-.63-2.38-.26-.75-.54-1.45-.84-2.1-.18-.39-.36-.74-.53-1.08-.2-.4-.61-.65-1.05-.65h-7.88c-.65,0-1.18-.53-1.18-1.18v-.21c0-.65,.53-1.18,1.18-1.18h31.25c.65,0,1.18,.53,1.18,1.18Zm-8.79,1.39h-10.19c-.85,0-1.41,.86-1.08,1.64,.39,.91,.72,1.83,1,2.76,.44,1.48,.66,2.93,.66,4.36,0,.72-.07,1.42-.21,2.1-.14,.68-.36,1.32-.64,1.92l.02,.04h10.44c.65,0,1.18-.53,1.18-1.18v-10.47c0-.65-.53-1.18-1.18-1.18Z"/><path class="h" d="M86.62,47.55c-.32-.66-.75-1.21-1.29-1.68-.54-.46-1.19-.82-1.95-1.07-.76-.25-1.59-.36-2.49-.34s-1.88,.19-2.82,.5c-.57,.19-1.13,.43-1.67,.71-.57,.31-.77,1.04-.44,1.6l.13,.23c.31,.54,1,.72,1.55,.43,.56-.29,1.07-.5,1.54-.62,.73-.2,1.36-.3,1.88-.31,1.13-.03,2,.21,2.61,.73,.61,.51,.92,1.17,.94,1.97,.01,.42-.07,.84-.25,1.26s-.46,.79-.86,1.13-.93,.62-1.59,.84c-.66,.22-1.46,.34-2.42,.37-1.13,.03-2.16-.1-3.07-.38-.91-.28-1.77-.67-2.57-1.19-.8-.51-1.56-1.13-2.3-1.85-.49-.48-.98-.99-1.48-1.54-.42-.46-2.21-1.67-2.69-1.26,.2,.57,1.76,3.78,2.23,4.28,.77,.82,1.65,1.57,2.64,2.24,.99,.67,2.1,1.22,3.33,1.65,1.23,.43,2.61,.62,4.15,.59,1.28-.03,2.39-.22,3.32-.57s1.7-.81,2.31-1.37c.61-.56,1.06-1.2,1.35-1.93,.29-.72,.43-1.47,.41-2.25s-.19-1.51-.5-2.17Z"/><path class="h" d="M185.86,47.55c-.32-.66-.75-1.21-1.29-1.68-.54-.46-1.19-.82-1.95-1.07-.76-.25-1.59-.36-2.49-.34s-1.88,.19-2.82,.5c-.57,.19-1.13,.43-1.67,.71-.57,.31-.77,1.04-.44,1.6l.13,.23c.31,.54,1,.72,1.55,.43,.56-.29,1.07-.5,1.54-.62,.73-.2,1.36-.3,1.88-.31,1.13-.03,2,.21,2.61,.73,.61,.51,.92,1.17,.94,1.97,.01,.42-.07,.84-.25,1.26s-.46,.79-.86,1.13-.93,.62-1.59,.84c-.66,.22-1.46,.34-2.42,.37-1.13,.03-2.16-.1-3.07-.38-.91-.28-1.77-.67-2.57-1.19-.8-.51-1.56-1.13-2.3-1.85-.49-.48-.98-.99-1.48-1.54-.42-.46-2.21-1.67-2.69-1.26,.2,.57,1.76,3.78,2.23,4.28,.77,.82,1.65,1.57,2.64,2.24,.99,.67,2.1,1.22,3.33,1.65,1.23,.43,2.61,.62,4.15,.59,1.28-.03,2.39-.22,3.32-.57s1.7-.81,2.31-1.37c.61-.56,1.06-1.2,1.35-1.93,.29-.72,.43-1.47,.41-2.25s-.19-1.51-.5-2.17Z"/><path class="h" d="M110.56,15.53h-2.16c-.71,0-1.28,.57-1.28,1.28v28.43c0,.71-.57,1.28-1.28,1.28h-.18c-.71,0-1.28-.57-1.28-1.28v-15.17c0-.71-.57-1.28-1.28-1.28l-8.92-.26c-.71,0-1.09,.87-1.09,1.57h0c.4,.69,.59,1.49,.54,2.28v.08c-.04,.4-.1,.73-.2,1-.1,.27-.25,.47-.45,.61-.2,.13-.47,.2-.8,.2-.69,0-1.36-.24-2-.72-.65-.48-1.22-1.06-1.72-1.73-.5-.68-.9-1.37-1.2-2.09-.3-.72-.45-1.32-.45-1.8,0-.39,.09-.7,.27-.92,.18-.23,.43-.4,.74-.52,.32-.12,.68-.2,1.1-.23,.42-.03,.86-.04,1.33-.04h12.85c.71,0,1.28-.57,1.28-1.28v-8.13c0-.71-.57-1.28-1.28-1.28h-18.14c-.71,0-1.28-.57-1.28-1.28h0c0-.71,.57-1.28,1.28-1.28h25.62c.71,0,1.28,.57,1.28,1.28h0c0,.71-.57,1.28-1.28,1.28Z"/><path class="h" d="M121.97,15.53h-2.16c-.71,0-1.28,.57-1.28,1.28v28.43c0,.71-.57,1.28-1.28,1.28h-.31c-.71,0-1.28-.57-1.28-1.28V16.82c0-.71-.57-1.28-1.28-1.28h-2.81c-.71,0-1.28-.57-1.28-1.28h0c0-.71,.57-1.28,1.28-1.28h2.61c.81,0,1.43-.76,1.26-1.55-.21-.95-.44-1.8-.69-2.54-.39-1.13-.82-2.07-1.28-2.83-.47-.76-.95-1.35-1.45-1.79-.5-.43-1-.76-1.49-.99-.49-.22-.95-.37-1.37-.43-.43-.06-.8-.09-1.11-.09-.79,0-1.47,.1-2.04,.3-.56,.2-1.02,.48-1.37,.82-.35,.35-.61,.75-.78,1.22-.16,.47-.25,.97-.25,1.51s.08,1.1,.23,1.68c.15,.58,.36,1.16,.63,1.73s.6,1.14,.99,1.69,.83,1.05,1.31,1.52h-2.24c-.38,0-.75-.17-.99-.46-.8-.97-1.43-1.94-1.89-2.91-.53-1.12-.8-2.28-.8-3.5,0-.93,.16-1.79,.47-2.57,.31-.78,.77-1.45,1.37-2.01,.6-.56,1.34-1,2.22-1.31s1.87-.46,2.98-.46c1.62,0,3.03,.33,4.23,.99,1.2,.66,2.22,1.57,3.07,2.74,.85,1.16,1.53,2.53,2.04,4.11,.41,1.26,.74,2.61,.98,4.05,.11,.62,.63,1.09,1.26,1.09h2.53c.71,0,1.28,.57,1.28,1.28h0c0,.71-.57,1.28-1.28,1.28Z"/><path class="h" d="M153.78,15.53h-2.16c-.71,0-1.28,.57-1.28,1.28v28.43c0,.71-.57,1.28-1.28,1.28h-.32c-.71,0-1.28-.57-1.28-1.28V25.84c0-.58-.4-1.1-.96-1.25-.15-.04-.3-.08-.45-.11-.47-.1-.93-.15-1.36-.15-.72,0-1.35,.13-1.9,.41-.55,.27-1.01,.64-1.4,1.12s-.67,1.05-.87,1.72c-.2,.67-.29,1.4-.29,2.2,0,.2,0,.41,.02,.64s.04,.45,.07,.66h-1.6c-.63,0-1.16-.45-1.26-1.07s-.2-1.16-.31-1.7c-.18-.86-.43-1.59-.75-2.21-.32-.62-.74-1.1-1.25-1.45-.51-.35-1.16-.53-1.96-.53-.75,0-1.41,.16-1.97,.47-.56,.32-1.03,.75-1.41,1.31-.38,.56-.66,1.22-.84,1.99-.19,.77-.28,1.61-.28,2.51,0,1.71,.3,3.27,.91,4.67,.61,1.4,1.42,2.68,2.44,3.84,1.02,1.16,2.19,2.19,3.52,3.09,.95,.65,1.93,1.26,2.94,1.81,.64,.35,.88,1.16,.5,1.79l-.14,.23c-.35,.59-1.11,.8-1.71,.47-.29-.16-.61-.34-.95-.54-.83-.49-1.7-1.09-2.63-1.8-.93-.71-1.87-1.54-2.8-2.48s-1.78-1.98-2.53-3.14c-.75-1.16-1.36-2.41-1.83-3.77-.47-1.36-.71-2.82-.71-4.38,0-1.34,.18-2.55,.54-3.64,.36-1.09,.86-2.02,1.5-2.79,.64-.77,1.4-1.37,2.29-1.79,.89-.42,1.85-.63,2.9-.63,.69,0,1.32,.09,1.9,.28,.58,.19,1.11,.45,1.59,.78,.48,.33,.91,.73,1.28,1.19,.38,.47,.71,.98,.99,1.53l.11-.02c.29-.64,.63-1.19,1.04-1.64s.85-.82,1.33-1.1,.99-.49,1.54-.61,1.11-.18,1.68-.18c.53,0,1.05,.05,1.58,.16,.53,.1,1.03,.26,1.51,.47v-5.4c0-.71-.57-1.28-1.28-1.28h-23.21c-.71,0-1.28-.57-1.28-1.28h0c0-.71,.57-1.28,1.28-1.28h30.82c.71,0,1.28,.57,1.28,1.28h0c0,.71-.57,1.28-1.28,1.28Z"/><path class="h" d="M197.82,15.53h-15.58c-.71,0-1.28,.57-1.28,1.28v8.98l.13,.04c.92-1.32,1.98-2.29,3.19-2.9,1.21-.61,2.46-.92,3.75-.92,1.13,0,2.15,.22,3.06,.65,.92,.44,1.7,1.02,2.35,1.74,.65,.73,1.16,1.58,1.51,2.56s.53,2,.53,3.08c0,.98-.15,1.97-.45,2.97-.3,1.01-.77,1.99-1.42,2.94-.65,.95-1.47,1.85-2.48,2.7-.73,.61-1.56,1.18-2.51,1.7-.61,.33-1.38,.13-1.73-.47l-.14-.24c-.36-.61-.15-1.4,.46-1.76,.69-.4,1.32-.83,1.87-1.3,.84-.71,1.53-1.46,2.06-2.24,.53-.78,.93-1.57,1.18-2.38,.25-.8,.38-1.58,.38-2.33,0-.69-.1-1.34-.3-1.94-.2-.6-.49-1.12-.87-1.56-.38-.44-.83-.79-1.37-1.05-.54-.25-1.15-.38-1.82-.38s-1.37,.13-2.08,.4c-.71,.27-1.4,.68-2.07,1.22-.67,.54-1.28,1.22-1.85,2.03-.52,.75-.96,1.62-1.31,2.59-.05,.14-.08,.3-.08,.45v13.84c0,.71-.57,1.28-1.28,1.28h-.31c-.71,0-1.28-.57-1.28-1.28v-7.97l-.11-.04c-.89,.93-1.85,1.65-2.9,2.17-1.05,.52-2.26,.78-3.62,.78-1.44,0-2.71-.28-3.8-.84s-2.01-1.3-2.76-2.21c-.74-.91-1.3-1.92-1.68-3.05-.38-1.13-.56-2.25-.56-3.38s.18-2.14,.53-3.19c.35-1.04,.87-1.97,1.56-2.79,.69-.82,1.53-1.47,2.53-1.97,1-.5,2.14-.74,3.43-.74,1.43,0,2.76,.29,4,.88,1.24,.59,2.33,1.34,3.28,2.27l.11-.02v-8.33c0-.71-.57-1.28-1.28-1.28h-16.64c-.71,0-1.28-.57-1.28-1.28h0c0-.71,.57-1.28,1.28-1.28h37.66c.71,0,1.28,.57,1.28,1.28h0c0,.71-.57,1.28-1.28,1.28Zm-19.72,13.44c0-.32-.11-.63-.33-.87-.89-.98-1.87-1.77-2.93-2.37-1.19-.68-2.45-1.01-3.77-1.01-.96,0-1.79,.18-2.5,.54s-1.29,.83-1.77,1.42-.83,1.25-1.06,2c-.23,.75-.35,1.51-.35,2.27,0,.83,.13,1.64,.38,2.43,.25,.8,.62,1.51,1.1,2.14,.48,.63,1.07,1.14,1.77,1.52,.7,.38,1.49,.57,2.38,.57,.72,0,1.5-.14,2.33-.43,.83-.29,1.6-.73,2.3-1.34,.7-.61,1.28-1.38,1.74-2.33,.46-.95,.7-2.07,.7-3.38v-1.17Z"/><path class="h" d="M226.82,15.53h-2.16c-.71,0-1.28,.57-1.28,1.28v28.43c0,.71-.57,1.28-1.28,1.28h-.31c-.71,0-1.28-.57-1.28-1.28v-10.47c0-.71-.57-1.28-1.28-1.28h-10.67c-.71,0-1.28-.13-1.28,.57v1.68c0,.54-.02,1-.07,1.37s-.14,.67-.27,.9c-.13,.22-.32,.39-.55,.5-.23,.1-.54,.16-.91,.16-.33,0-.7-.09-1.1-.28s-.82-.44-1.24-.77c-.42-.32-.83-.69-1.24-1.11-.41-.42-.77-.86-1.08-1.32s-.57-.92-.75-1.38c-.19-.46-.28-.91-.28-1.33,0-.38,.07-.67,.2-.88,.14-.21,.32-.36,.54-.46,.22-.1,.48-.15,.76-.17s.59-.02,.9-.02h1.63c.71,0,.57-.57,.57-1.28v-12.85c0-.71-.57-1.28-1.28-1.28h-5.42c-.71,0-1.28-.57-1.28-1.28h0c0-.71,.57-1.28,1.28-1.28h29.15c.71,0,1.28,.57,1.28,1.28h0c0,.71-.57,1.28-1.28,1.28Zm-19.56,.57v13.56c0,.71-.13,1.28,.57,1.28h12.09c.71,0,.57-.57,.57-1.28v-13.56c0-.71-.57-.57-1.28-.57h-10.67c-.71,0-1.28-.13-1.28,.57Z"/><path class="h" d="M235.55,15.53h-2.16c-.71,0-1.28,.57-1.28,1.28v28.43c0,.71-.57,1.28-1.28,1.28h-.32c-.71,0-1.28-.57-1.28-1.28V16.82c0-.71-.57-1.28-1.28-1.28h-2.81c-.71,0-1.28-.57-1.28-1.28h0c0-.71,.57-1.28,1.28-1.28h10.42c.71,0,1.28,.57,1.28,1.28h0c0,.71-.57,1.28-1.28,1.28Z"/><path class="h" d="M256.57,15.53h-5.4c-.96,0-1.93,.18-1.5,1.04,.03,.06,.43,.94,.46,1,.35,.72,.66,1.47,.91,2.25,.25,.78,.46,1.58,.61,2.39,.15,.81,.22,1.62,.22,2.43,0,.98-.14,1.92-.43,2.85s-.72,1.75-1.31,2.46c-.58,.72-1.32,1.3-2.21,1.73-.89,.44-1.92,.65-3.11,.65h-.65l-.04,.16c.62,1.08,1.33,2.15,2.14,3.22,.81,1.07,1.69,2.11,2.63,3.14,.95,1.03,1.96,2.02,3.04,2.97,.74,.65,1.49,1.28,2.26,1.88,.58,.46,.68,1.3,.19,1.86l-.18,.21c-.44,.51-1.21,.59-1.74,.18-1.6-1.23-3.08-2.56-4.45-4-1.64-1.72-3.11-3.46-4.41-5.23s-2.45-3.5-3.43-5.18c-.72-1.22-1.34-2.36-1.88-3.4-.32-.62-.08-1.38,.54-1.72l.17-.09c.61-.33,1.35-.1,1.71,.49,.1,.17,.21,.33,.31,.48,.31,.46,.65,.85,1.01,1.18s.76,.58,1.19,.75c.43,.17,.92,.26,1.44,.26,.69,0,1.3-.14,1.83-.43,.53-.28,.99-.67,1.36-1.16,.38-.49,.66-1.05,.86-1.68s.29-1.29,.29-1.98c0-.79-.09-1.58-.27-2.35-.18-.77-.42-1.53-.72-2.26-.3-.74-.76-1.66-1.16-2.35-.27-.47-.37-.84-.65-1.29-.23-.38-.7-.49-1.14-.49h-9.21c-.71,0-1.28-.57-1.28-1.28h0c0-.71,.57-1.28,1.28-1.28h20.71c.71,0,1.28,.57,1.28,1.28h0c0,.71-.57,1.28-1.28,1.28Z"/></g><g><path class="h" d="M33.88,15.18h-6.62l-.11,7.2c-.01,.71-.59,1.29-1.3,1.29l-9.96,.1c-.63,0-1.16,.04-1.58,.12-.42,.08-.76,.22-1.02,.41s-.45,.43-.55,.72c-.11,.29-.16,.65-.16,1.07,0,.38,.04,.78,.14,1.21,.09,.43,.27,.83,.53,1.19,.26,.37,.62,.67,1.07,.91s1.04,.36,1.76,.36h6.33c1.35,0,2.49,.18,3.43,.53,.94,.35,1.7,.83,2.28,1.44,.59,.61,1.01,1.33,1.26,2.16,.25,.83,.38,1.72,.38,2.67,0,1.29-.22,2.54-.65,3.74-.44,1.2-1.08,2.26-1.94,3.19s-1.91,1.66-3.16,2.21c-1.25,.55-2.7,.82-4.33,.82-1.82,0-3.55-.35-5.21-1.04-1.66-.69-3.19-1.65-4.58-2.89s-2.62-2.71-3.67-4.41c-1.05-1.7-1.88-3.57-2.48-5.59h0c1.31-.49,2.74,.16,3.31,1.43,.35,.78,.74,1.54,1.18,2.29,.86,1.48,1.86,2.78,3,3.91,1.14,1.13,2.41,2.03,3.79,2.7,1.39,.68,2.88,1.01,4.47,1.01,1.11,0,2.13-.18,3.05-.53s1.71-.85,2.38-1.49,1.17-1.41,1.54-2.32c.37-.91,.55-1.92,.55-3.05,0-.79-.1-1.46-.29-1.98s-.49-.95-.89-1.26c-.4-.32-.9-.54-1.52-.66-.62-.13-1.34-.19-2.16-.19h-5.72c-1.16,0-2.15-.21-2.97-.64s-1.51-.97-2.05-1.63-.94-1.4-1.19-2.22c-.25-.82-.38-1.61-.38-2.38,0-.87,.15-1.59,.44-2.16,.29-.57,.7-1.02,1.21-1.36,.52-.34,1.13-.58,1.85-.72,.71-.14,1.48-.21,2.31-.21h8.73v-5.94H0c.1-1.44,1.3-2.57,2.75-2.57h31.13v2.57Z"/><path class="h" d="M46.64,15.18h-4.53c-.06,0-.1,.04-.1,.1v30.8c0,.06-.04,.1-.1,.1h-2.68c-.06,0-.1-.04-.1-.1V15.28c0-.06-.04-.1-.1-.1h-5.18c-.06,0-.1-.04-.1-.1v-2.37c0-.06,.04-.1,.1-.1h12.79c.06,0,.1,.04,.1,.1v2.37c0,.06-.04,.1-.1,.1Z"/><path class="h" d="M49.44,46.56c-.6,0-1.11-.21-1.53-.63s-.63-.93-.63-1.53,.21-1.13,.62-1.55c.41-.42,.93-.63,1.54-.63,.3,0,.58,.06,.84,.17s.49,.26,.69,.45,.35,.42,.47,.69,.18,.56,.18,.88-.06,.58-.18,.84c-.12,.26-.28,.49-.47,.69-.2,.2-.42,.35-.69,.46s-.54,.17-.84,.17Z"/></g><g><polygon class="f" points="213.55 29.36 214.07 28.18 215.13 28.93 215.01 27.66 216.28 27.78 215.54 26.73 216.71 26.2 215.54 25.67 216.28 24.62 215.01 24.74 215.13 23.47 214.07 24.22 213.55 23.04 213.03 24.22 211.97 23.47 212.09 24.74 210.81 24.62 211.56 25.67 210.39 26.2 211.56 26.73 210.81 27.78 212.09 27.66 211.97 28.93 213.03 28.18 213.55 29.36"/><path class="g" d="M212.2,19.36l.12-.25-.73-.31,.78-.18-.53-.57,.78,.14-.24-.74,.66,.44,.09-.77,.41,.66,.41-.66,.09,.77,.66-.44-.24,.74,.78-.14-.53,.57,.78,.18-.73,.31,.12,.25c.79-.37,1.39-1.06,1.66-1.9,0,.09,.01,.18,.01,.27,0,1.67-1.35,3.02-3.02,3.02s-3.02-1.35-3.02-3.02c0-.09,0-.17,.01-.26,.27,.83,.88,1.51,1.66,1.88Z"/></g></g></g></svg>